<?xml version="1.0" encoding="UTF-8" standalone="no"?>
<!-- Created with Inkscape (http://www.inkscape.org/) -->

<svg
   width="210mm"
   height="297mm"
   viewBox="0 0 210 297"
   version="1.1"
   id="svg5"
   inkscape:version="1.1.2 (b8e25be833, 2022-02-05)"
   sodipodi:docname="ania.svg"
   inkscape:export-filename="C:\Users\moham\Desktop\ania.png"
   inkscape:export-xdpi="300"
   inkscape:export-ydpi="300"
   xmlns:inkscape="http://www.inkscape.org/namespaces/inkscape"
   xmlns:sodipodi="http://sodipodi.sourceforge.net/DTD/sodipodi-0.dtd"
   xmlns:xlink="http://www.w3.org/1999/xlink"
   xmlns="http://www.w3.org/2000/svg"
   xmlns:svg="http://www.w3.org/2000/svg">
  <sodipodi:namedview
     id="namedview7"
     pagecolor="#ffffff"
     bordercolor="#666666"
     borderopacity="1.0"
     inkscape:pageshadow="2"
     inkscape:pageopacity="0.0"
     inkscape:pagecheckerboard="0"
     inkscape:document-units="mm"
     showgrid="false"
     inkscape:snap-nodes="true"
     inkscape:zoom="0.51843089"
     inkscape:cx="256.54335"
     inkscape:cy="472.57986"
     inkscape:window-width="1920"
     inkscape:window-height="1009"
     inkscape:window-x="-8"
     inkscape:window-y="-8"
     inkscape:window-maximized="1"
     inkscape:current-layer="g115" />
  <defs
     id="defs2">
    <linearGradient
       inkscape:collect="always"
       id="linearGradient15620">
      <stop
         style="stop-color:#fdfaf9;stop-opacity:0.60326087"
         offset="0"
         id="stop15616" />
      <stop
         style="stop-color:#fdfaf9;stop-opacity:1;"
         offset="0.52098262"
         id="stop16276" />
      <stop
         style="stop-color:#fdfaf9;stop-opacity:0.54076087"
         offset="1"
         id="stop15618" />
    </linearGradient>
    <linearGradient
       inkscape:collect="always"
       id="linearGradient13710">
      <stop
         style="stop-color:#ffffff;stop-opacity:1"
         offset="0"
         id="stop13706" />
      <stop
         style="stop-color:#fbccb3;stop-opacity:1;"
         offset="0.46334803"
         id="stop14162" />
      <stop
         style="stop-color:#ffffff;stop-opacity:1"
         offset="1"
         id="stop13708" />
    </linearGradient>
    <linearGradient
       inkscape:collect="always"
       id="linearGradient10415">
      <stop
         style="stop-color:#376c1f;stop-opacity:1"
         offset="0"
         id="stop10411" />
      <stop
         style="stop-color:#2f4e31;stop-opacity:1"
         offset="1"
         id="stop10413" />
    </linearGradient>
    <linearGradient
       inkscape:collect="always"
       id="linearGradient9886">
      <stop
         style="stop-color:#497d38;stop-opacity:1"
         offset="0"
         id="stop9882" />
      <stop
         style="stop-color:#b7ff9f;stop-opacity:1"
         offset="1"
         id="stop9884" />
    </linearGradient>
    <linearGradient
       inkscape:collect="always"
       id="linearGradient8625">
      <stop
         style="stop-color:#f5dece;stop-opacity:1"
         offset="0"
         id="stop8621" />
      <stop
         style="stop-color:#ffc2ab;stop-opacity:1"
         offset="1"
         id="stop8623" />
    </linearGradient>
    <linearGradient
       inkscape:collect="always"
       id="linearGradient4994">
      <stop
         style="stop-color:#f9a897;stop-opacity:1"
         offset="0"
         id="stop4990" />
      <stop
         style="stop-color:#febdaf;stop-opacity:1"
         offset="0.5436433"
         id="stop11085" />
      <stop
         style="stop-color:#f9a293;stop-opacity:1"
         offset="1"
         id="stop4992" />
    </linearGradient>
    <linearGradient
       inkscape:collect="always"
       xlink:href="#linearGradient4994"
       id="linearGradient4996"
       x1="332.46155"
       y1="284.13034"
       x2="330.03467"
       y2="184.14354"
       gradientUnits="userSpaceOnUse" />
    <linearGradient
       inkscape:collect="always"
       xlink:href="#linearGradient8625"
       id="linearGradient8627"
       x1="389.54526"
       y1="697.73224"
       x2="395.79169"
       y2="1108.6886"
       gradientUnits="userSpaceOnUse" />
    <linearGradient
       inkscape:collect="always"
       xlink:href="#linearGradient9886"
       id="linearGradient9888"
       x1="385.03665"
       y1="540.5766"
       x2="386.57684"
       y2="675.99298"
       gradientUnits="userSpaceOnUse" />
    <radialGradient
       inkscape:collect="always"
       xlink:href="#linearGradient10415"
       id="radialGradient10417"
       cx="390.46387"
       cy="615.125"
       fx="390.46387"
       fy="615.125"
       r="132.84082"
       gradientTransform="matrix(1.9220433,0.01452037,-0.00163519,0.21644769,-359.01874,476.31293)"
       gradientUnits="userSpaceOnUse" />
    <linearGradient
       inkscape:collect="always"
       xlink:href="#linearGradient13710"
       id="linearGradient13712"
       x1="384.79968"
       y1="531.00494"
       x2="386.1636"
       y2="942.91382"
       gradientUnits="userSpaceOnUse" />
    <linearGradient
       inkscape:collect="always"
       xlink:href="#linearGradient15620"
       id="linearGradient15622"
       x1="328.17868"
       y1="195.3696"
       x2="327.81448"
       y2="124.08496"
       gradientUnits="userSpaceOnUse" />
  </defs>
  <g
     inkscape:label="Layer 1"
     inkscape:groupmode="layer"
     id="layer1">
    <g
       transform="matrix(0.42439167,0,0,0.42439167,-57.510041,21.204322)"
       id="g115">
      <g
         id="wick_project_bg"
         fill="#ffffff"
         fill-rule="nonzero"
         stroke="none"
         stroke-width="1"
         stroke-linecap="butt"
         stroke-linejoin="miter"
         stroke-miterlimit="10"
         stroke-dasharray="none"
         stroke-dashoffset="0"
         font-family="none"
         font-weight="none"
         font-size="none"
         text-anchor="none"
         style="mix-blend-mode:normal" />
      <g
         data-paper-data="{&quot;wickUUID&quot;:&quot;c5d2f57f-583e-4760-9565-e30490bfbcfa&quot;,&quot;wickType&quot;:&quot;clipsandpaths&quot;}"
         fill="none"
         fill-rule="none"
         stroke="none"
         stroke-width="none"
         stroke-linecap="none"
         stroke-linejoin="miter"
         stroke-miterlimit="10"
         stroke-dasharray="none"
         stroke-dashoffset="0"
         font-family="none"
         font-weight="none"
         font-size="none"
         text-anchor="none"
         style="mix-blend-mode:normal"
         id="g75"
         transform="matrix(1.8219337,0,0,1.8219337,-220.19905,-102.57757)">
        <path
           id="8bd31b9d-73f4-4141-ab01-98f62a0f1477"
           d="m 409.96289,402.29297 c -0.16018,-0.0552 -0.24854,-0.0533 -0.25,0.0137 -0.0117,0.53576 -0.32186,7.27182 0.21875,12.09375 2.65741,23.68883 7.24923,43.10991 14.36719,60.89649 5.10636,12.76008 19.08029,41.30785 26.97656,55.08007 4.09426,7.14134 4.87002,5.9136 3.72833,6.17954 -3.73968,0.86991 -28.93744,-3.78593 -43.44122,-7.66782 -19.2653,-5.15704 -36.24415,-14.82072 -60.07422,-34.12109 -3.88481,-3.14545 -11.53585,-8.73979 -11.53585,-8.47289 0,0.26682 2.29729,9.96768 3.73507,13.35179 3.4075,8.02291 9.82958,17.25886 19.78125,28.61719 1.68629,1.92461 3.09152,3.28036 4.32422,4.38477 -1.49753,-0.88661 -3.32759,-1.89397 -5.92578,-3.10938 -31.09902,-14.54665 -54.06405,-40.01991 -66.78907,-74.15429 -5.65773,-15.1769 -12.87223,-51.87654 -14.22333,-61.81264 -0.19873,-1.46607 -4.99064,8.95003 -5.42315,9.61537 -0.39452,0.60786 -1.87096,5.66647 -2.99219,10.14844 -2.9779,11.90189 -3.63702,34.88008 -1.41797,48.24609 2.52786,15.22365 10.62255,45.46119 16.28516,60.79492 1.71513,4.64361 2.62634,6.1349 7.51367,8.20313 -0.29601,-0.044 -0.54785,-0.0578 -0.69336,-0.002 -0.62927,0.24169 -3.75491,-0.46592 -5.71875,-1.2871 -5.09955,-2.13042 -20.01775,-1.78229 -29.07422,0.5332 -7.54493,1.92984 -15.30111,5.40021 -22.47851,9.89648 1.05844,-0.73347 2.08073,-1.39739 3.04883,-1.95898 9.72861,-5.64312 19.66295,-8.85478 29.37695,-9.75391 l 12.2297,-1.69177 -9.84298,-7.72424 c -7.92354,-5.82335 -16.04429,-14.04425 -21.65235,-21.98047 -4.39038,-6.21299 -17.0895,-30.54812 -17.11677,-32.88991 -0.038,-3.33932 -2.84181,6.01092 -5.80315,14.5735 -8.17486,23.63818 -22.87006,54.11676 -37.6875,78.16992 l -8.88281,14.63086 -0.37109,23.44532 -0.17969,23.69531 2.94141,0.57422 -2.92774,0.32422 0.48242,9.34961 c 3.90042,52.77821 17.49437,117.36713 32.42578,154.0664 l 5.85938,14.36328 6.74805,4.54688 c 3.23896,2.06124 13.98731,7.84005 23.36328,12.60937 49.30838,25.07988 93.52651,38.22294 136.16601,40.67774 38.72837,2.22977 95.42735,-12.49187 144.88282,-37.75586 l 18.18945,-9.41407 5.53125,-16.13671 c 2.76554,-8.42134 8.76931,-24.10224 13.37109,-34.91602 4.60275,-10.81477 8.66411,-22.97824 8.66411,-23.2812 -39.86281,-9.59112 -60.65343,13.52822 -91.20317,1.27729 -2.07267,-1.61886 -2.19184,0.3485 -6.5293,-4.25586 -10.90729,-11.63011 -6.08983,-26.05905 11.49414,-34.45117 l 6.28711,-2.83593 -3.96093,-3.88282 c -19.48256,-5.82334 -31.24209,-23.65533 -34.32813,-52.19531 -1.07447,-9.94194 -0.60092,-21.81724 0.83008,-28.00781 0.51238,-2.21517 -0.49416,-4.44141 -2.0586,-4.44141 -1.04036,0 -2.47084,-0.54429 -3.70117,-1.85351 -1.94534,-2.07197 -1.95651,-0.79812 -1.35547,-4.8125 2.21906,-14.79506 9.97112,-30.94609 19.90625,-41.01954 10.74852,-10.89756 20.22688,-14.65263 35.98047,-14.77148 5.35769,-0.0409 10.45124,0.36043 12.42969,0.78125 l 5.53125,0.0801 0.14453,-6.02149 c -0.30781,-2.02813 -0.13952,-5.98234 -0.536,-6.42166 -0.45023,-0.49922 -5.18659,-0.84987 -8.17494,-1.14865 l 8.17494,1.14865 -0.0206,-7.16818 c 0,-2.01741 -1.40556,-3.71646 -4.64844,-5.5293 -23.98594,-13.40593 -61.6637,-46.78112 -78.31836,-69.39062 -8.08234,-10.97258 -16.84984,-25.17732 -23.97461,-38.67969 -1.97918,-3.7504 -6.5565,-6.96526 -7.67773,-7.35156 z m 143.97461,87.95508 c -2.25409,-6.48361 -2.77978,-6.30323 -5.07031,1.33984 -0.2563,0.74617 -1.1633,3.96702 -2.02344,7.18164 -2.48598,9.28637 -5.31472,16.86012 -9.33203,24.97461 l -5.25,9.92774 4.73242,1.98828 c 0.64026,0.38665 1.83729,1.06282 3.26172,1.86914 -0.24991,-0.1321 -0.50053,-0.26765 -0.74805,-0.39258 l -7.24609,-3.46484 -4.35742,4.50976 c -2.45092,3.44061 -3.09434,5.68868 -0.88014,5.68868 2.72951,0 16.59812,7.31742 22.5442,11.70976 6.1896,4.57256 12.60276,12.34454 16.98437,20.47656 3.01202,5.58955 4.75429,6.86031 7.25,5.2793 0.62362,-0.39537 3.40359,-0.21482 4.24712,-1.50728 1.06742,1.9732 -0.01,-0.0366 0,0 0.93905,3.48737 -0.30271,-0.58254 -2.24317,0.98775 -1.1826,0.95757 -2.94411,2.21679 -3.63867,2.21679 -0.95074,0 -0.79018,3.03446 0.71484,7.44141 1.09785,3.21462 3.64504,7.24607 4.23828,7.24219 0.27536,-0.001 1.18826,-0.14362 2.22461,-0.39063 -1.8759,1.20234 -2.55159,2.40944 -2.57422,4.20899 l 1.4043,6.3789 v 0 c -4.45912,1.50844 -0.17135,3.69831 0.11914,6.27539 0.5085,4.50436 3.17475,7.00586 9.40235,7.00586 3.11818,0 4.56536,-2.3833 4.92578,-1.80078 1.24785,2.02033 -7.41706,0.87843 -13.19949,0.87843 -6.52079,0 -0.63145,2.38295 0.5823,11.23681 0.40023,2.91944 1.28982,5.38457 2.52344,6.43164 l -1.36719,0.0684 -1.07227,6.57812 c -0.74909,6.6455 -2.10775,8.69727 -5.75976,8.69727 l -3.81123,-3.20249 c -0.76607,5.96363 -1.18784,2.89378 -3.99737,6.9603 -0.26354,5.51238 -2.34055,6.2571 -11.27343,15.56836 -4.15759,4.35823 -9.91578,9.54938 -12.55664,11.33203 -3.15813,2.13138 -4.19596,7.13653 -3.2793,7.45703 16.19876,5.66746 23.05306,9.57847 27.48047,15.9668 3.14837,4.54334 -4.29231,17.13342 -6.04185,22.43366 -1.31019,3.96859 12.47544,3.44329 14.82115,3.44329 1.42319,0 9.26505,-20.71439 12.9414,-34.20898 4.46344,-16.38483 9.48278,-54.03967 12.74805,-95.69141 0.83092,-10.60436 1.19827,-20.38444 0.8164,-21.03125 -0.38087,-0.64681 -2.36556,-3.82568 -4.0625,-5.96875 -9.59029,-12.11424 -22.89875,-37.3472 -36.70312,-69.5918 -3.78545,-8.84216 -7.02974,-16.25834 -7.20508,-16.46875 -0.0219,-0.0263 -0.11801,-0.0375 -0.26953,-0.0352 z m -58.14453,39.06445 c -5.04253,0.60243 -9.97167,1.76938 -14.70703,3.47461 4.86502,-1.89144 9.42104,-2.97463 14.70703,-3.47461 z m -191.94336,5.11523 c 1.36442,0.68615 2.694,1.41813 3.99219,2.20508 -1.33597,-0.76763 -2.67849,-1.51569 -3.99219,-2.20508 z m 239.37695,4.79883 c 0.393,0.22587 0.72227,0.40961 1.12305,0.64258 2.98592,1.73658 6.38042,4.39728 9.83008,7.55859 -3.61999,-3.17145 -7.36056,-5.99258 -10.95313,-8.20117 z m -76.06445,0.49024 c -0.38351,0.2495 -0.76162,0.51 -1.14063,0.76758 0.37403,-0.25856 0.75603,-0.51913 1.14063,-0.76758 z m -196.73047,0.16992 c 2.4108,0.0271 4.80179,0.22003 7.16016,0.58594 18.59511,2.88535 33.5117,15.79964 44.83789,37.99609 4.40791,8.63856 6.57031,15.23919 6.57031,19.50391 0,3.18831 -2.16208,4.34765 -5.27734,4.34765 l -3.36133,1.63672 1.63086,5.7832 c 1.26442,3.94718 1.60922,8.04477 1.54297,19.69727 -0.0956,16.80174 -1.2692,23.76842 -6.21875,36.60156 -2.52494,6.5471 -3.73277,8.26279 -9.33594,14.16211 -3.81955,4.02023 -8.42458,7.78552 -11.07422,9.10547 l -5.71875,4.49024 5.54102,4.68554 c 7.14425,4.69919 10.84179,9.93335 10.84179,16.47852 -21.43098,4.74732 -68.88438,-15.26209 -74.97265,-21.97852 l 5.46093,-3.99219 -8.70312,-8.74218 c -4.47221,-4.29395 -9.10825,-9.34628 -10.21875,-11.14258 -1.54498,-2.4996 -2.82478,-3.38867 -5,-3.38867 -5.52222,0.73337 -1.82374,-8.61888 -5.20986,-9.14768 -3.00032,0 -4.1727,3.616 -5.63389,-2.0242 -1.08225,-4.17705 -1.88519,-4.98584 -4.40039,-4.79297 -1.51476,0.1169 -2.042,1.5658 -2.4336,0.93164 -0.94781,-1.53328 0.48718,-2.11914 2.77344,-2.11914 1.47776,0 2.1836,-1.53894 2.1836,-4.61133 l -0.82032,-6.29101 -3.85937,0.35742 3.46289,-1.35547 0.31055,-8.00781 -0.42969,-8.20313 -1.08203,-0.17968 h 0.0195 l 1.49219,-5.95508 -0.88282,-5.57422 -1.67578,-0.46289 c 2.17178,-0.47768 3.48194,-2.96967 3.45117,-6.00977 -0.0293,-2.95984 -0.57393,-4.43991 -3.38867,-6.13281 1.7501,0.44229 3.2809,0.65541 3.35938,0.54492 0.12654,-0.17914 2.23698,-4.58184 2.88867,-6.84961 1.16018,-4.04361 0.97361,-4.90256 -2.16406,-7.7207 -2.49475,-2.2405 -2.99871,-1.28746 -2.08789,-2.21094 0.9147,-0.92835 -0.18867,0.62228 1.73242,1.88086 3.41138,2.23563 5.02822,1.57692 6.9375,-2.42578 1.79142,-3.75722 0.85283,-10.10568 -0.98047,-6.67969 -1.25858,2.35056 -2.67972,6.57001 -3.47656,4.49219 -0.92061,-2.39908 4.09525,-9.70462 11.04882,-17.53711 -2.06216,4.02479 -3.18915,9.02145 -3.19531,9.32813 -0.009,0.38867 5.1996,-3.03836 9.65235,-7.44532 14.0077,-13.8645 31.82749,-21.81826 48.70312,-21.6289 z m 183.59375,10.96875 c -4.23122,4.76012 -4.15432,6.75236 -4.98437,4.25781 -0.15417,-0.46327 1.79994,-1.54597 4.98437,-4.25781 z m -126.22266,3.53711 c 4.03426,4.47863 5.50674,4.14919 4.25432,5.40161 -1.51288,1.51288 -0.45581,0.42463 -4.25432,-5.40161 z m 244.79883,14.6289 c 1.18579,1.85312 2.19754,3.61878 2.97461,5.23829 -0.64049,-0.97853 -1.31869,-2.12062 -1.83984,-3.15039 -0.34729,-0.68578 -0.73034,-1.38372 -1.13477,-2.0879 z m -380.07422,23.0625 c 0.22445,-10e-4 0.12511,0.8749 0.73633,1.76758 -2.07986,-0.84106 -2.30213,-0.8205 -0.81445,-1.74023 0.0299,-0.0184 0.0557,-0.0272 0.0781,-0.0273 z m 392.61719,1.76563 c -0.0304,0.13892 -0.0647,0.24489 -0.0898,0.42187 -0.13133,0.92191 -0.56048,0.97803 -1.49024,1.19727 0.80856,-0.63137 1.28668,-1.18226 1.58008,-1.61914 z m 4.72461,12.45508 c -0.12307,0.4571 -0.35691,0.47273 -0.94922,0.42578 0.41335,-0.1414 0.72708,-0.28605 0.94922,-0.42578 z m -398.36719,31.45117 c 0.10212,-0.0737 0.54968,0.95792 1.80274,1.16406 -1.47312,0.48259 -1.82813,0.44504 -1.82813,-0.99609 0,-0.10229 0.007,-0.15441 0.0254,-0.16797 z m 196.94922,20.16016 c 0.21691,0 -0.46968,0.15212 -1.21484,0.42578 0.31107,-0.30468 0.70956,-0.42578 1.21484,-0.42578 z m -1.89844,15.69531 c 0.30511,1.2776 0.76403,1.75324 1.02735,1.90625 -0.0897,-0.0184 -0.18696,-0.0391 -0.36133,-0.0391 -1.24083,0 -0.85386,0.562 -0.66602,-1.86719 z m 2.31055,81.40625 c 4.21547,0.0472 8.64466,0.93838 13.3086,2.68359 18.44022,6.89878 24.20512,19.81471 9.77148,23.82422 -5.02357,1.39593 -43.23006,0.84989 -47.36719,-0.59961 -8.3619,-2.93018 -8.29157,-5.92558 -0.69726,-14.04492 7.46595,-7.98164 15.71034,-11.96709 24.98437,-11.86328 z"
           style="fill:url(#linearGradient8627);fill-opacity:1"
           transform="matrix(0.34218665,0,0,0.34218665,195.23804,28.877852)"
           sodipodi:nodetypes="sscsccccscsccsccccccccccccccscccccccccccccsccccccccccccsccccccccccccccsscccccccccsccccccssccccccscsscccccccccccsccccssscccccccccccccsccscccscccccsscccsscccsccccccccccccccccccccccccscsccsccccsscsccccccccscsssssccsccccscccsccccs" />
        <path
           d="m 313.31329,105.38119 c -23.851,2.24133 -38.20032,11.35637 -52.04165,29.66104 -7.78867,10.30067 -14.72818,23.02367 -21.87251,40.291 -7.783,18.81133 -9.2323,23.16682 -16.24597,48.91282 -5.20167,19.093 -7.59009,27.32336 -11.81609,40.71303 -7.63833,24.201 -9.02273,30.74595 -9.00006,42.04562 0.027,13.746 3.3947,26.14402 9.52637,35.12869 5.706,8.36067 14.34899,15.19687 24.16466,19.00187 5.234,2.029 6.46109,0.84996 2.61209,-2.98037 -3.871,-3.85267 -7.35246,-8.22171 -10.15979,-12.73804 -2.20033,-3.54033 -6.79029,-12.41158 -6.54729,-12.65458 0.0907,-0.091 -0.27878,1.56632 0.78222,2.47732 2.90133,2.491 11.71111,9.44342 14.17111,11.18775 4.43967,3.14767 7.46722,4.46825 13.17689,5.71558 2.60667,0.56967 3.24021,0.8707 6.45521,3.07237 4.44867,3.046 8.52511,5.25916 12.06844,6.55216 1.49367,0.54533 3.68268,0.91034 3.76901,0.91034 0.0863,0 0.49289,-2.111 0.49289,-3.91733 0,-4.79467 0.5998,-16.01031 1.21513,-22.71831 0.29433,-3.20833 0.54653,-9.11802 0.5592,-13.05969 0.023,-7.071 -0.0131,-7.39436 -1.07876,-11.34103 -0.59433,-2.2 -2.57338,-7.75099 -4.37205,-12.24266 -3.018,-7.53633 -4.17335,-11.17348 -6.47735,-20.42715 -2.081,-8.35733 -4.09096,-19.58795 -5.23496,-29.24695 -0.273,-2.306 -0.43016,-7.71639 -0.43549,-14.73939 l -0.014,-11.05031 1.55899,-2.19957 c 4.015,-6.06833 8.96456,-15.52887 12.06089,-23.04954 1.717,-4.16967 4.28821,-13.05215 4.28821,-13.86582 0,-0.951 -0.4556,0.0927 0.32473,2.607 1.90133,6.126 5.52037,12.19795 9.49504,15.95428 2.23933,2.11633 8.87969,6.53896 9.15169,6.27129 0.063,-0.062 -1.02011,-4.03681 -1.85444,-6.75448 -1.91367,-6.23467 -3.31134,-11.8378 -4.04101,-16.27013 -0.85933,-5.22167 -0.55106,-12.06916 0.76894,-17.17383 0.845,-3.26867 2.68679,-7.88129 3.01512,-7.50396 0.056,0.0643 -1.09373,1.3354 -0.77873,3.2454 1.215,7.36533 3.93353,16.84532 6.43753,22.54065 3.36033,7.64267 8.32989,13.70574 15.23622,18.53474 1.544,1.07933 6.24093,3.87891 6.39226,3.87891 0.15167,0 -2.33803,-3.82538 -3.15203,-4.93138 -0.81433,-1.106 -1.88446,-2.87435 -2.44313,-4.05668 -1.15533,-2.44533 -3.27312,-7.98594 -2.98112,-7.98594 0.106,0 -0.0767,0.98819 0.98261,1.96919 6.05807,4.65995 12.6622,9.71133 17.2942,11.95966 4.61967,2.24233 9.95597,3.73987 17.3623,4.8362 1.4109,0.20891 3.92033,0.75987 4.57016,0.45842 0.69184,-0.32088 0.57062,0.43022 0.23527,0.081 -1.04533,-1.08833 -8.93713,-16.81916 -10.67813,-21.39349 -3.32067,-8.72533 -5.27116,-19.89482 -5.01983,-28.69115 l -0.52907,-2.69101 0.37795,2.87761 c 2.45367,6.07867 8.29252,15.96567 12.83752,21.76567 4.72767,6.03267 14.61491,14.79474 22.17191,19.63307 4.74167,3.036 4.60514,2.89394 4.89274,7.88178 0.0978,1.69651 1.57525,0.84729 3.05283,-1.71188 1.63567,-2.11267 4.35642,-9.62841 5.77809,-15.98074 0.23567,-1.05333 0.0643,-1.48291 0.19294,-1.56224 0.129,-0.0797 -0.60973,0.12368 -0.28573,0.99068 0.324,0.86733 1.9259,4.70882 3.5379,8.49015 4.80033,11.26233 8.93064,19.06869 12.84131,24.27136 l 1.42834,1.7571 -0.37089,4.51008 c -1.45567,18.95433 -3.07017,30.73954 -5.17217,37.69721 -1.05267,3.48433 -3.27505,9.16326 -8.26305,21.18126 -2.38,5.735 -4.52608,12.27015 -6.37775,19.35882 -4.29067,16.42333 -5.37442,30.09814 -3.14409,39.64781 0.764,3.271 3.03068,10.22795 3.92868,11.96628 l 1.7144,1.58672 3.80658,-3.06919 c 5.19,-4.23133 7.94807,-6.07067 12.0264,-8.01867 l 3.18106,-1.57488 0.36879,0.94276 c 2.294,2.62967 5.39724,7.25569 7.08157,10.55669 0.95033,1.86233 2.46638,3.82801 2.51371,3.88534 0.28333,0.34333 9.59251,-1.78628 13.95384,-3.20295 3.699,-1.20133 10.16502,-4.37146 12.62635,-6.12846 7.478,-5.339 15.37356,-17.387 18.53156,-28.27667 1.77133,-6.10767 2.32539,-10.71154 2.13706,-18.26087 -0.25967,-10.41467 -1.12909,-14.74449 -7.29942,-36.32882 -7.38467,-25.83267 -13.05727,-42.24241 -26.40727,-76.38408 -8.25867,-21.12133 -9.42192,-27.5999 -13.52259,-35.79623 -18.45317,-40.66187 -42.39879,-54.72394 -76.11471,-57.29955 -3.71767,-0.48 -19.18265,-0.95042 -23.41778,0.27135 z"
           data-paper-data="{&quot;wickUUID&quot;:&quot;3155e747-9738-40c9-865c-2a2d3ef8e159&quot;,&quot;wickType&quot;:&quot;path&quot;}"
           id="3155e747-9738-40c9-865c-2a2d3ef8e159"
           fill="#f9a897"
           fill-rule="evenodd"
           stroke="none"
           stroke-width="1"
           stroke-linecap="butt"
           style="fill:url(#linearGradient4996);fill-opacity:1;fill-rule:evenodd"
           sodipodi:nodetypes="cccccccsccccccccssscccccccccscsscccccccsccscscscccccccsccccccccsccsccccccsccccccccccc" />
        <path
           d="m 393.55307,131.64866 c 5.22333,6.85633 8.64595,12.46343 13.67862,22.41743 5.17067,10.22733 8.893,18.29909 11.33033,24.56276 1.28067,3.29167 2.87164,8.04471 3.01831,7.77938 0.49133,-0.889 5.29666,-15.44127 6.72366,-20.31727 2.93967,-10.04333 6.06942,-23.94861 5.59409,-24.39361 -0.70233,-0.65767 -11.1136,-5.00706 -16.79227,-6.82173 -6.748,-2.156 -16.17902,-4.42597 -21.72435,-5.22664 l -3.85642,-0.3665 z"
           data-paper-data="{&quot;wickUUID&quot;:&quot;6b5b6d7b-bf03-4fc9-89e5-e1680637219d&quot;,&quot;wickType&quot;:&quot;path&quot;}"
           id="6b5b6d7b-bf03-4fc9-89e5-e1680637219d"
           fill="#2a261b"
           fill-rule="evenodd"
           stroke="none"
           stroke-width="1"
           stroke-linecap="butt"
           sodipodi:nodetypes="cccccccccc" />
        <path
           d="m 256.48063,131.19661 c -5.071,0.76767 -19.0534,4.21228 -23.77473,5.85561 -4.00667,1.39467 -11.17047,4.94744 -11.17047,5.38977 0,0.967 2.22248,9.43656 3.82448,14.14456 2.15867,6.34533 2.92507,8.74616 4.84007,15.16083 0.76433,2.56 1.99801,6.36885 2.73734,8.45285 l 2.0717,5.51619 3.39498,-7.88162 c 7.72267,-18.92967 14.92992,-32.41481 22.89625,-42.84148 l 4.3227,-4.88524 -3.77881,0.4109 c -0.60633,0.017 -3.07184,0.3303 -5.36351,0.67763 z"
           data-paper-data="{&quot;wickUUID&quot;:&quot;6cd0936e-90a8-4b4f-aca7-57ab6295db68&quot;,&quot;wickType&quot;:&quot;path&quot;}"
           id="6cd0936e-90a8-4b4f-aca7-57ab6295db68"
           fill="#2a261b"
           fill-rule="evenodd"
           stroke="none"
           stroke-width="1"
           stroke-linecap="butt"
           sodipodi:nodetypes="ccsccccccccc" />
        <path
           d="m 221.49281,274.0033 c 7.74719,40.73991 44.28892,61.68764 48.75075,27.96853 0.25739,0.34668 1.54542,4.05798 2.52384,7.15969 -0.50968,-1.79765 -2.14365,-6.26134 -2.52384,-7.15969 -0.136,-0.32067 2.05315,1.23226 2.13815,1.23226 0.0847,0 1.54128,0.79491 3.17195,1.73991 6.11167,3.54167 17.61583,8.62544 25.11383,11.09744 2.65833,0.87633 5.30937,2.00033 5.43237,2.115 0.36967,0.34367 1.33998,5.35136 1.57731,8.38136 l 0.11131,3.39794 -3.32868,2.06981 c -8.32433,4.88767 -19.0033,9.50158 -26.8833,11.61558 l -3.32365,0.84372 -0.70114,-1.79916 c -0.39787,5.99539 -0.70289,12.68449 -0.70289,16.09469 0,1.80633 -0.40656,3.91741 -0.49289,3.91741 -0.0863,0 -2.32131,-0.39002 -3.81498,-0.93535 -5.66333,-2.06667 -14.10576,-7.43441 -16.39376,-10.35608 -2.37098,-3.02785 -4.59866,-6.00223 -6.68478,-8.92639 1.48643,2.13261 2.80909,3.95637 3.69556,5.06813 1.67267,2.09767 4.14395,5.11101 3.83062,5.18068 -0.79967,0.17733 -8.44081,-1.96458 -10.90348,-3.13725 -2.87767,-1.37 -6.0635,-3.62423 -13.67383,-9.69123 -4.17667,-3.33 -5.96164,-4.95844 -5.84831,-5.33544 0.0947,-0.31533 -0.72223,-1.66012 -1.7719,-2.94045 -1.35616,-1.65447 -2.56628,-3.30837 -3.63875,-4.9816 1.06475,1.74756 2.18252,3.35695 3.23467,4.62152 0.68633,0.825 2.33737,3.62253 3.7087,6.28086 4.64067,8.996 8.55518,14.59407 14.17085,20.26474 1.709,1.72567 5.64676,5.44951 5.53909,5.55718 -0.64033,0.64033 -13.82043,-4.79226 -18.3291,-7.79159 -14.45967,-9.62 -22.13396,-24.77937 -23.16996,-45.70004 -0.45367,-9.16233 0.97686,-18.33211 5.28386,-32.82311 l 2.15686,-7.21724 c -1.3254,7.41028 0.26165,11.90541 1.80318,9.21484 -0.45175,4.64877 -0.73168,8.39579 -0.87383,12.08114 0.0587,-1.08638 0.12439,-2.2667 0.19746,-3.55397 0.20533,-3.615 0.51161,-6.59405 0.66861,-6.49738 -1.61953,11.86432 8.45659,25.55063 10.91379,13.78498 0.17083,4.7e-4 0.49655,0.77719 0.83726,1.9824 -0.35946,-1.89583 -0.51638,-3.65437 -0.60304,-6.20567 -0.089,-2.62467 -0.434,-5.35421 -1.00167,-7.92521 -0.47567,-2.15467 -0.86714,-4.7993 -0.86714,-5.85197 z m 53.14644,49.15135 c -0.01,1.57513 -0.0593,3.48162 -0.1343,5.40441 0.25227,-4.36868 0.29096,-7.71521 0.11926,-10.27407 0.0319,1.19424 0.0285,2.71842 0.015,4.86966 z m -38.02566,5.78677 c 0.0615,0.10344 0.12446,0.20878 0.1888,0.31592 -0.62404,-1.04828 -1.22828,-2.09013 -1.81283,-3.1257 0.53023,0.9438 1.07199,1.88138 1.62403,2.80978 z M 212.339,316.31311 c -0.53271,-1.73608 -0.95617,-3.52513 -1.27759,-5.3842 0.24436,1.92246 0.63083,3.44895 1.27759,5.3842 z m 169.795,-10.20884 c 0.16887,-0.0936 -0.19184,1.72423 -0.43001,3.33922 0.56197,-2.07803 1.17425,-4.18805 1.83626,-6.32464 0.936,-3.02067 -4.70616,17.89066 -4.03949,18.11266 7.54337,14.54112 46.51525,-22.74511 58.44484,-43.16608 l 0.16952,4.59965 c 0.118,5.00233 -0.42521,11.75899 -0.97288,12.09766 -0.237,0.14633 -0.32887,0.75032 -0.1892,1.30599 0.13041,0.51965 0.0698,1.44241 -0.14246,2.63849 0.22915,-1.0882 0.37139,-1.96565 0.37521,-2.4194 0.58238,6.03345 17.425,-14.52875 12.64464,-31.32745 0.328,0.336 5.8842,19.70933 7.4742,26.06066 1.95333,7.803 2.58456,12.36479 2.77423,19.96346 0.18833,7.54933 -0.3695,12.08723 -2.14083,18.1949 -3.158,10.88967 -11.05356,22.93767 -18.53156,28.27667 -2.46133,1.757 -8.92731,4.92711 -12.62631,6.12844 -4.35533,1.41467 -13.69411,3.54749 -13.96544,3.20249 -0.045,-0.0573 -1.63057,-2.17176 -2.67324,-4.19343 -1.04267,-2.02167 -3.15906,-5.3511 -4.73406,-7.44643 l -9.93948,1.33798 c 2.27293,-1.47472 -7.66862,4.39462 -12.28321,8.17741 l -1.05098,-2.18254 c -0.899,-1.74267 -3.16516,-8.73248 -3.92849,-12.00081 -0.71324,-3.05386 -1.07884,-6.58306 -1.10636,-10.5019 l -0.3664,1.78973 -1.63728,-0.51127 c -1.674,-0.394 -7.81682,-2.50643 -9.69515,-3.33276 -1.045,-0.45933 -4.57663,-2.32642 -7.7603,-4.10642 l -6.04413,-3.4488 0.0217,-4.27683 c 0.114,-2.01667 0.39822,-4.57642 0.62622,-5.63909 l 0.80149,-2.53452 5.8045,-1.99096 c 6.58633,-2.23167 13.90554,-5.31477 18.64387,-7.85344 1.83333,-0.982 3.84249,-1.5262 3.93681,-1.57849 z m 49.40865,7.95096 c -4.25032,8.94777 -9.29219,16.42693 -16.29663,24.06097 1.84171,-1.9662 3.43663,-3.75414 4.37399,-4.94221 7.03067,-8.91133 11.78161,-17.37689 15.12361,-26.93522 0.28284,-0.80909 0.57684,-1.75171 0.85876,-2.73174 -1.01698,3.34385 -2.48135,7.22531 -4.05973,10.5482 z"
           data-paper-data="{&quot;wickUUID&quot;:&quot;27cc8af7-282b-4acc-8486-2b1b609f55ce&quot;,&quot;wickType&quot;:&quot;path&quot;}"
           fill-opacity="0.99"
           fill="#c8705b"
           fill-rule="evenodd"
           stroke="none"
           stroke-width="0"
           stroke-linecap="butt"
           id="path17"
           sodipodi:nodetypes="ccccscccccccccsscccscccccccssscsccccccccccccsccsssccscccscscccccccccccccssccccscccccccccccsscccscc" />
        <path
           d="m 412.05889,164.3548 c 1.65816,3.31429 2.98864,6.0997 4.53137,9.6385 -0.0597,1.62404 -0.47771,3.02408 -1.21695,4.63893 -2.519,5.501 -6.797,8.272 -12.771,8.272 -5.51564,0 -9.8955,-2.61566 -12.32238,-7.19302 -2.50445,3.19647 -6.44828,5.2618 -11.24886,5.23445 -6.487,-0.036 -10.618,-3.163 -13.756,-10.412 -1.869,-4.319 -3.748,-8.462 -5.84,-12.877 -3.77,-7.957 -0.092,-16.902 8.164,-19.858 1.639,-0.587 3.287,-0.795 5.271,-0.665 5.46973,0.36022 9.25526,2.92793 12.15599,8.34512 2.05636,-3.35451 5.2228,-5.76479 8.76725,-6.63155 2.13641,-0.52244 4.44061,-0.44749 6.6273,0.11605 3.38777,5.43386 7.09825,12.31705 11.63828,21.39152 z m -120.91237,1.26938 c -0.13602,-0.82478 10e-4,-1.53042 0.19628,-2.0712 0.0251,0.40215 0.0364,0.81172 0.0339,1.22849 -0.004,0.63626 -0.024,1.22268 -0.0702,1.77607 -0.0559,-0.31452 -0.10922,-0.62579 -0.15996,-0.93336 z m -2.23639,4.25856 c -0.30567,1.18209 -0.55709,2.45765 -0.75232,3.78483 -1.14174,1.43382 -2.67494,3.11538 -4.72712,5.2719 -5.13353,5.39307 -13.77897,5.02454 -19.13294,0.0816 -3.4156,5.08222 -10.38537,7.5385 -16.37906,5.54767 -3.91395,-1.29987 -7.00525,-4.60999 -8.5158,-8.46177 0.0473,-0.11451 0.0949,-0.22955 0.14276,-0.34514 7.14433,-17.26733 14.08384,-29.99033 21.87251,-40.291 0.61705,-0.81602 1.23719,-1.61239 1.86104,-2.38943 6.77588,-2.04139 14.85697,2.00153 17.14449,8.71534 0.9798,2.87514 0.97016,6.29986 0.10749,9.26126 1.18858,0.26019 2.32158,0.62331 3.23151,1.0685 4.52288,2.21257 7.12378,6.03104 7.55146,11.03817 -0.70665,1.41276 -1.80544,4.40263 -2.40402,6.7181 z"
           data-paper-data="{&quot;wickUUID&quot;:&quot;bb15d004-62ca-4dbf-aaec-2e0a45272ac7&quot;,&quot;wickType&quot;:&quot;path&quot;}"
           id="bb15d004-62ca-4dbf-aaec-2e0a45272ac7"
           fill="#fdfaf9"
           fill-rule="evenodd"
           stroke="none"
           stroke-width="1"
           stroke-linecap="butt"
           opacity="0.52"
           style="fill-opacity:1;fill:url(#linearGradient15622)" />
        <path
           id="8f8701a4-4f0a-42c3-ae83-e38c87c86a49"
           d="M 259.06836 686.7168 C 230.95791 686.7168 208.16992 699.49969 208.16992 715.26758 C 208.16992 731.03546 230.95791 743.81641 259.06836 743.81641 C 287.17881 743.81641 309.9668 731.03546 309.9668 715.26758 C 309.9668 699.49969 287.17881 686.7168 259.06836 686.7168 z M 520.98047 687.82031 C 492.87002 687.82031 470.08203 700.60125 470.08203 716.36914 C 470.08203 732.13703 492.87002 744.91992 520.98047 744.91992 C 549.09092 744.91992 571.87891 732.13703 571.87891 716.36914 C 571.87891 700.60125 549.09092 687.82031 520.98047 687.82031 z "
           transform="matrix(0.34218665,0,0,0.34218665,195.23804,28.877852)"
           style="fill:url(#linearGradient13712);fill-opacity:1" />
        <path
           d="m 360.16392,281.7559 c -0.48077,-1.57051 -1.1859,-5.73718 -1.41026,-8.33334 z m 5.76923,2.94872 c -1.25,-2.78846 -2.72436,-8.36539 -2.94872,-11.15385 z m 1.53846,-13.71796 c 1.89103,3.84616 3.87821,10.25642 3.97436,12.82052 z m 6.41026,1.15385 c 1.60256,3.04487 3.26923,9.13462 3.33333,12.17949 z m 5.12821,0.1282 c 1.05769,2.27564 2.91666,7.59616 3.71794,10.64103 z m 3.20512,-2.05128 c 1.57051,2.53205 3.42949,8.10898 3.71795,11.15385 z m 8.58974,9.74359 c -1.02564,-1.85897 -2.5641,-5.0641 -3.07692,-6.41025 z m -95.39193,2.69139 c -0.0595,-1.75595 1.13094,-5.26786 2.0238,-7.02381 z m -4.16667,-0.47619 c -0.11905,-1.6369 0.83333,-5.14881 1.90476,-7.02381 z m -6.66667,2.14286 c 0.50595,-2.64881 2.70833,-8.18452 4.40476,-11.07143 z m -5.2381,0 c 0.47619,-3.125 1.90477,-7.70834 2.85715,-9.16667 z m -5.23809,-0.59524 c 0.86309,-3.06548 3.54166,-8.95833 5.35714,-11.78571 z m -5.2381,-2.73809 c 1.42857,-2.44048 5,-7.32143 7.14286,-9.76191 z m -1.90476,-3.21429 c 0.77381,-1.875 3.03571,-5.14881 4.52381,-6.54762 z"
           data-paper-data="{&quot;wickUUID&quot;:&quot;916df153-c539-4fec-a19d-7c5aaf11cdd8&quot;,&quot;wickType&quot;:&quot;path&quot;}"
           id="916df153-c539-4fec-a19d-7c5aaf11cdd8"
           fill="none"
           fill-rule="nonzero"
           stroke="#000000"
           stroke-width="0.5"
           stroke-linecap="round"
           opacity="0.23" />
        <path
           id="c2b695e7-10e4-47ed-b0cf-e4b6aee51062"
           d="m 327.25391,846.52734 c -0.63419,-0.008 -1.00072,0.03 -0.9961,0.11133 0.0175,0.32634 -0.42773,5.82413 0.35742,9.30664 0.78516,3.48252 1.70205,13.11191 2.05274,21.55078 l 1.12695,7.88086 c -0.50287,-1.47805 -0.87499,-2.6941 -0.92187,-3.21679 l -2.80274,0.36132 -7.50195,3.9043 -10.41797,6.5918 c 0.0529,0.13004 0.10944,0.25784 0.16992,0.38476 h -0.24804 c 11.49218,56.98411 142.85394,62.23961 166.01051,-0.63084 1.02431,-1.14095 -1.5169,-2.87381 -6.64528,-5.84372 l -11.89453,-5.18359 0.61719,-4.26953 c 0.36822,-8.43887 1.12541,-18.07095 1.68554,-21.44922 0.5611,-3.37731 1.66436,-9.1833 1.39453,-9.45312 -0.26973,-0.26974 -10.63318,0.99233 -18.59375,2.60937 -20.37095,4.14005 -28.16992,4.94922 -48.47851,4.94922 -19.33156,0 -37.43302,-2.05822 -54.7832,-6.20313 -3.91819,-0.93589 -8.2283,-1.37602 -10.13086,-1.40039 z"
           transform="matrix(0.34218665,0,0,0.34218665,195.23804,28.877852)"
           style="fill:#d4a994;fill-opacity:1"
           sodipodi:nodetypes="scscccccccccccccscssss" />
        <path
           d="m 328.80579,345.94903 c -13.59684,0.38744 -25.10595,-4.42197 -28.12289,-11.49271 l -5.35815,2.37809 c -2.66633,1.27267 -5.54267,2.56908 -6.41367,2.89108 l -1.95473,0.89832 -0.0877,2.58276 c 0,4.04967 2.67105,9.75881 5.59038,12.63248 5.37667,5.29233 17.71225,7.49735 42.12958,7.48835 13.19633,-0.005 17.0726,-0.27547 23.16893,-1.5038 6.86167,-1.382 11.68404,-5.23592 15.18904,-12.24592 1.173,-2.34667 3.04389,-7.14317 2.82856,-7.3025 -0.0537,-0.0397 -1.38551,-1.15843 -2.30218,-1.39876 -3.05,-0.799 -8.59761,-3.02016 -12.11328,-4.85049 -1.91067,-0.99433 -3.75588,-1.86894 -3.77021,-1.86294 -0.0147,0.006 -1.08656,1.67026 -1.08656,1.67026 -4.53425,8.63813 -18.29192,10.39654 -27.69712,10.11578 z"
           data-paper-data="{&quot;wickUUID&quot;:&quot;073c9efd-3616-4839-a1fe-f35a954ae977&quot;,&quot;wickType&quot;:&quot;path&quot;}"
           id="073c9efd-3616-4839-a1fe-f35a954ae977"
           fill="#f5dece"
           fill-rule="evenodd"
           stroke="none"
           stroke-width="1"
           stroke-linecap="butt"
           sodipodi:nodetypes="ccccccccccsccccc" />
        <line
           x1="413.79193"
           y1="370.37021"
           x2="247.17654"
           y2="370.37021"
           data-paper-data="{&quot;wickUUID&quot;:&quot;2be8a0eb-4d7a-4665-96e1-127fc2f5845a&quot;,&quot;wickType&quot;:&quot;path&quot;}"
           id="2be8a0eb-4d7a-4665-96e1-127fc2f5845a"
           fill="none"
           fill-rule="nonzero"
           stroke="#000000"
           stroke-width="1"
           stroke-linecap="round" />
        <path
           d="m 282.74833,341.95778 c -1.55833,0.515 -4.15685,1.29442 -5.78452,1.73509 -1.628,0.44033 -3.56984,1.39164 -3.62851,1.45031 -0.0587,0.0583 -0.25639,4.42721 -0.38606,9.42421 -0.12967,4.99667 0.30574,8.37103 0.15441,8.46436 -0.94067,0.58167 -9.42728,-3.15046 -13.72795,-5.93279 -1.311,-0.848 -3.41388,-1.38854 -3.54555,-1.38621 -0.428,0.008 -3.55785,5.03732 -5.77552,9.33232 l -2.4721,5.22365 83.0988,0.24778 82.75998,0.0218 -0.13689,-2.09082 c -0.12567,-0.50433 -0.46599,-1.23791 -0.70266,-1.51291 -0.23667,-0.275 -1.23647,-2.07419 -2.1828,-3.93119 -1.61033,-3.16 -4.34435,-7.29811 -6.47568,-9.80111 l -1.68805,-1.45774 c -6.78729,4.74058 -12.08455,8.44298 -18.83154,13.17904 -0.41567,0 -2.21563,-4.54647 -3.44963,-8.32314 -1.24167,-3.80033 -2.24705,-8.00855 -2.66105,-11.12022 l -0.58051,-3.71323 -0.82518,0.007 c -2.391,6.963 -7.76326,15.8564 -13.02526,18.44107 -4.16533,2.046 -11.17143,2.92488 -24.5311,3.17221 -18.696,0.34567 -35.56281,-1.4976 -41.69781,-4.59393 -5.77833,-2.91633 -9.22412,-8.38706 -9.87312,-15.15106 l -0.61199,-2.59052 z"
           data-paper-data="{&quot;wickUUID&quot;:&quot;a22208ab-e22c-4bd5-aecb-cb5a3e6871d2&quot;,&quot;wickType&quot;:&quot;path&quot;}"
           id="a22208ab-e22c-4bd5-aecb-cb5a3e6871d2"
           fill="#2a292f"
           fill-rule="evenodd"
           stroke="none"
           stroke-width="1"
           stroke-linecap="butt"
           sodipodi:nodetypes="cccsccccccccsscccscccscsccc" />
        <path
           d="m 318.18255,294.27092 c 0,-2.6108 4.49884,-7.09091 10.27273,-7.09091 5.77389,0 10.27272,4.29829 10.27272,6.90909 0,2.6108 -4.49883,2.54545 -10.27272,2.54545 -5.77389,0 -10.27273,0.24717 -10.27273,-2.36363 z"
           data-paper-data="{&quot;wickUUID&quot;:&quot;118234b2-af80-4ce1-ac70-7effe111ff11&quot;,&quot;wickType&quot;:&quot;path&quot;}"
           id="118234b2-af80-4ce1-ac70-7effe111ff11"
           fill="#d38579"
           fill-rule="nonzero"
           stroke="#000000"
           stroke-width="1"
           stroke-linecap="round" />
        <path
           d="m 328.39734,290.74221 c 4.65156,0 8.44377,2.098 8.62499,4.72502 -1.80171,0.67377 -4.98585,0.64678 -8.69665,0.64678 -3.61873,0 -6.73662,0.0971 -8.56001,-0.47317 0.022,-2.70758 3.87808,-4.89863 8.63167,-4.89863 z"
           data-paper-data="{&quot;wickUUID&quot;:&quot;d5d1ae2d-7ac4-4393-9756-ce022e750c66&quot;,&quot;wickType&quot;:&quot;path&quot;}"
           id="d5d1ae2d-7ac4-4393-9756-ce022e750c66"
           fill="#f9a799"
           fill-rule="nonzero"
           stroke="#000000"
           stroke-width="0"
           stroke-linecap="round" />
        <path
           d="m 306.84228,242.37582 c -0.1906,-8.62252 -8.87682,-27.67527 -21.71875,-25.90406 -9.58182,-1.03321 -19.64414,11.19679 -20.82963,25.31365 0.74092,15.59287 12.13691,28.41329 25.12703,25.31366 15.80566,0 17.60487,-16.42169 17.42135,-24.72325 z"
           data-paper-data="{&quot;wickUUID&quot;:&quot;18f22ffb-ee65-4e57-aaaf-1ff5e2e88f2d&quot;,&quot;wickType&quot;:&quot;path&quot;}"
           id="18f22ffb-ee65-4e57-aaaf-1ff5e2e88f2d"
           fill="#ffffff"
           fill-rule="nonzero"
           stroke="#000000"
           stroke-width="0"
           stroke-linecap="round" />
        <path
           d="m 350.83311,241.12059 c 0.18985,-8.62252 8.84179,-27.67527 21.63303,-25.90406 9.54401,-1.03321 19.5666,11.19679 20.74741,25.31365 -0.738,15.59287 -12.089,28.41329 -25.02785,25.31366 -15.74327,0 -17.53538,-16.42169 -17.35259,-24.72325 z"
           data-paper-data="{&quot;wickUUID&quot;:&quot;f886f128-5e98-4cf5-8108-1447dbcfeda3&quot;,&quot;wickType&quot;:&quot;path&quot;}"
           id="f886f128-5e98-4cf5-8108-1447dbcfeda3"
           fill="#ffffff"
           fill-rule="nonzero"
           stroke="#000000"
           stroke-width="0"
           stroke-linecap="round" />
        <path
           id="53465ab5-2f41-41f2-8f6c-967aecae5229"
           d="M 506.13281 562.45312 C 485.81215 562.45312 469.33789 585.00289 469.33789 612.82031 C 469.33789 640.63773 485.81215 663.1875 506.13281 663.1875 C 526.45348 663.1875 542.92578 640.63773 542.92578 612.82031 C 542.92578 585.00289 526.45348 562.45312 506.13281 562.45312 z M 273.13477 565.07227 C 254.68919 565.07227 239.73633 587.97217 239.73633 616.2207 C 239.73633 644.46923 254.68919 667.36914 273.13477 667.36914 C 291.58034 667.36914 306.5332 644.46923 306.5332 616.2207 C 306.5332 587.97217 291.58034 565.07227 273.13477 565.07227 z "
           transform="matrix(0.34218665,0,0,0.34218665,195.23804,28.877852)"
           style="fill:url(#linearGradient9888);fill-opacity:1;stroke:#000000;stroke-opacity:1;stroke-width:2.6456693;stroke-miterlimit:10;stroke-dasharray:none" />
        <line
           x1="327.31949"
           y1="254.59363"
           x2="327.51947"
           y2="260.19363"
           data-paper-data="{&quot;wickUUID&quot;:&quot;e621a909-04b0-4a90-a9ec-0c8f99eab9aa&quot;,&quot;wickType&quot;:&quot;path&quot;}"
           id="e621a909-04b0-4a90-a9ec-0c8f99eab9aa"
           fill="none"
           fill-rule="nonzero"
           stroke="#000000"
           stroke-width="1"
           stroke-linecap="round" />
        <path
           d="m 351.01208,234.12639 c 0,0 2.84558,-22.90618 23.54183,-17.72896 20.69625,5.17722 17.55154,34.39563 17.55154,34.39563"
           data-paper-data="{&quot;wickUUID&quot;:&quot;55968709-d42d-40cc-bfa7-a548ec7e83e3&quot;,&quot;wickType&quot;:&quot;path&quot;}"
           id="55968709-d42d-40cc-bfa7-a548ec7e83e3"
           fill="none"
           fill-rule="nonzero"
           stroke="#000000"
           stroke-width="4"
           stroke-linecap="round"
           style="stroke-width:4.0001889;stroke-miterlimit:10;stroke-dasharray:none;stroke-linecap:round;paint-order:normal;stroke-linejoin:round;stroke-dashoffset:0" />
        <path
           d="m 306.09937,233.32802 c -0.52969,-6.95383 -12.46912,-25.08353 -29.28331,-15.67215 -16.4613,8.45103 -11.75985,36.21411 -11.75985,36.21411"
           data-paper-data="{&quot;wickUUID&quot;:&quot;a9b4b647-e0c8-4075-8deb-caaed9985b7e&quot;,&quot;wickType&quot;:&quot;path&quot;}"
           id="a9b4b647-e0c8-4075-8deb-caaed9985b7e"
           fill="none"
           fill-rule="nonzero"
           stroke="#000000"
           stroke-width="4"
           stroke-linecap="round"
           style="stroke-width:4.0001889;stroke-miterlimit:10;stroke-dasharray:none" />
        <path
           d="m 368.80916,265.88791 c 0,0.51276 0.002,1.23457 -0.22536,1.69014"
           data-paper-data="{&quot;wickUUID&quot;:&quot;b579a268-9c5e-491e-9903-25ef273c4805&quot;,&quot;wickType&quot;:&quot;path&quot;}"
           id="b579a268-9c5e-491e-9903-25ef273c4805"
           fill="none"
           fill-rule="nonzero"
           stroke="#000000"
           stroke-width="1"
           stroke-linecap="round" />
        <path
           d="m 371.75149,266.26489 c 0,0.67563 0.29736,1.49473 0.6,2.1"
           data-paper-data="{&quot;wickUUID&quot;:&quot;47b719de-f5ed-40c4-b7ea-851423329483&quot;,&quot;wickType&quot;:&quot;path&quot;}"
           id="47b719de-f5ed-40c4-b7ea-851423329483"
           fill="none"
           fill-rule="nonzero"
           stroke="#000000"
           stroke-width="1"
           stroke-linecap="round" />
        <path
           d="m 374.45149,265.96489 c 0.15597,0.4679 0.64355,1.04355 1,1.4"
           data-paper-data="{&quot;wickUUID&quot;:&quot;0ae356f5-30b3-4810-b267-321432c054b3&quot;,&quot;wickType&quot;:&quot;path&quot;}"
           id="0ae356f5-30b3-4810-b267-321432c054b3"
           fill="none"
           fill-rule="nonzero"
           stroke="#000000"
           stroke-width="1"
           stroke-linecap="round" />
        <path
           d="m 378.45149,266.46489 c -0.34728,-0.34728 -0.48273,-0.83093 -0.6,-1.3"
           data-paper-data="{&quot;wickUUID&quot;:&quot;e5ce6770-d82b-4975-8158-9b207f56934e&quot;,&quot;wickType&quot;:&quot;path&quot;}"
           id="e5ce6770-d82b-4975-8158-9b207f56934e"
           fill="none"
           fill-rule="nonzero"
           stroke="#000000"
           stroke-width="1"
           stroke-linecap="round" />
        <path
           d="m 389.95149,256.76489 c -0.14179,-0.28358 -0.47521,-0.5 -0.8,-0.5"
           data-paper-data="{&quot;wickUUID&quot;:&quot;e230c33a-7ddb-4332-beef-dfcbd3fc2a56&quot;,&quot;wickType&quot;:&quot;path&quot;}"
           id="e230c33a-7ddb-4332-beef-dfcbd3fc2a56"
           fill="none"
           fill-rule="nonzero"
           stroke="#000000"
           stroke-width="1"
           stroke-linecap="round" />
        <path
           d="m 390.88823,253.63734 c 0.34454,0 1.26304,0.89344 1.42857,1.22449"
           data-paper-data="{&quot;wickUUID&quot;:&quot;6dab8583-c93f-4129-b2fb-46ef50c31080&quot;,&quot;wickType&quot;:&quot;path&quot;}"
           id="6dab8583-c93f-4129-b2fb-46ef50c31080"
           fill="none"
           fill-rule="nonzero"
           stroke="#000000"
           stroke-width="1"
           stroke-linecap="round" />
        <path
           d="m 288.60412,266.91226 c 0,0.4474 0.1,0.85921 0.1,1.3"
           data-paper-data="{&quot;wickUUID&quot;:&quot;f98ff19c-c28b-4c02-ac90-cc768495db0c&quot;,&quot;wickType&quot;:&quot;path&quot;}"
           id="f98ff19c-c28b-4c02-ac90-cc768495db0c"
           fill="none"
           fill-rule="nonzero"
           stroke="#000000"
           stroke-width="1"
           stroke-linecap="round" />
        <path
           d="m 285.80412,267.11226 c 0,0.36598 0.0473,1.25269 -0.2,1.5"
           data-paper-data="{&quot;wickUUID&quot;:&quot;da5d834b-26a8-493c-88ee-b1959f36bdc3&quot;,&quot;wickType&quot;:&quot;path&quot;}"
           id="da5d834b-26a8-493c-88ee-b1959f36bdc3"
           fill="none"
           fill-rule="nonzero"
           stroke="#000000"
           stroke-width="1"
           stroke-linecap="round" />
        <path
           d="m 281.60412,267.81226 c 0,-0.37269 0.13129,-0.76258 0.3,-1.1"
           data-paper-data="{&quot;wickUUID&quot;:&quot;e09eff2d-20a6-4184-937b-786e90c6ea7d&quot;,&quot;wickType&quot;:&quot;path&quot;}"
           id="e09eff2d-20a6-4184-937b-786e90c6ea7d"
           fill="none"
           fill-rule="nonzero"
           stroke="#000000"
           stroke-width="1"
           stroke-linecap="round" />
        <path
           d="m 279.00412,268.11226 c -0.24152,-0.48303 0.22906,-1.32906 0.6,-1.7"
           data-paper-data="{&quot;wickUUID&quot;:&quot;4c615e98-e239-41c9-baa1-2c4b45639943&quot;,&quot;wickType&quot;:&quot;path&quot;}"
           id="4c615e98-e239-41c9-baa1-2c4b45639943"
           fill="none"
           fill-rule="nonzero"
           stroke="#000000"
           stroke-width="1"
           stroke-linecap="round" />
        <path
           d="m 268.70412,256.31226 c -0.43223,0 -0.71276,0.3 -1.1,0.3"
           data-paper-data="{&quot;wickUUID&quot;:&quot;c3a9eda4-dc58-459f-8790-8d44baab10ec&quot;,&quot;wickType&quot;:&quot;path&quot;}"
           id="c3a9eda4-dc58-459f-8790-8d44baab10ec"
           fill="none"
           fill-rule="nonzero"
           stroke="#000000"
           stroke-width="1"
           stroke-linecap="round" />
        <path
           d="m 393.03898,227.28748 c -0.24545,0.25 -1.64545,0.75 -2.8,1"
           data-paper-data="{&quot;wickUUID&quot;:&quot;16ba4ac3-1616-4e43-9d59-8e527568fe1c&quot;,&quot;wickType&quot;:&quot;path&quot;}"
           id="16ba4ac3-1616-4e43-9d59-8e527568fe1c"
           fill="none"
           fill-rule="nonzero"
           stroke="#000000"
           stroke-width="0.8"
           stroke-linecap="round" />
        <path
           d="m 262.13685,251.22152 c 0.75,-0.025 2.25,-0.675 3,-1.3"
           data-paper-data="{&quot;wickUUID&quot;:&quot;a35dc623-f1ca-489f-b404-20ca0bdb7bcc&quot;,&quot;wickType&quot;:&quot;path&quot;}"
           id="a35dc623-f1ca-489f-b404-20ca0bdb7bcc"
           fill="none"
           fill-rule="nonzero"
           stroke="#000000"
           stroke-width="0.8"
           stroke-linecap="round" />
        <path
           d="m 260.63685,247.62152 c 1.025,-0.025 2.875,-0.675 3.7,-1.3"
           data-paper-data="{&quot;wickUUID&quot;:&quot;a64cdb27-9374-4ae0-a700-264522dee687&quot;,&quot;wickType&quot;:&quot;path&quot;}"
           id="a64cdb27-9374-4ae0-a700-264522dee687"
           fill="none"
           fill-rule="nonzero"
           stroke="#000000"
           stroke-width="0.8"
           stroke-linecap="round" />
        <path
           d="m 258.43685,240.62152 c 1.225,0.3 3.675,0.5 4.9,0.4"
           data-paper-data="{&quot;wickUUID&quot;:&quot;818a0d1e-e854-44cc-b77c-5f9e2c7e3f00&quot;,&quot;wickType&quot;:&quot;path&quot;}"
           id="818a0d1e-e854-44cc-b77c-5f9e2c7e3f00"
           fill="none"
           fill-rule="nonzero"
           stroke="#000000"
           stroke-width="0.8"
           stroke-linecap="round" />
        <path
           d="m 259.33685,236.22152 c 1.475,0.525 4.225,0.975 5.5,0.9"
           data-paper-data="{&quot;wickUUID&quot;:&quot;e6c9d8de-e33c-4755-8246-6765671d91a8&quot;,&quot;wickType&quot;:&quot;path&quot;}"
           id="e6c9d8de-e33c-4755-8246-6765671d91a8"
           fill="none"
           fill-rule="nonzero"
           stroke="#000000"
           stroke-width="0.8"
           stroke-linecap="round" />
        <path
           d="m 260.63685,231.72152 c 1.45,0.9 4.65,2.1 6.5,2.6"
           data-paper-data="{&quot;wickUUID&quot;:&quot;7a1c2fcb-5b49-4d2c-a8ff-bd40242af5a4&quot;,&quot;wickType&quot;:&quot;path&quot;}"
           id="7a1c2fcb-5b49-4d2c-a8ff-bd40242af5a4"
           fill="none"
           fill-rule="nonzero"
           stroke="#000000"
           stroke-width="0.8"
           stroke-linecap="round" />
        <path
           d="m 263.43685,227.42152 c 0.77941,0.91029 3.27941,2.26029 5,2.7"
           data-paper-data="{&quot;wickUUID&quot;:&quot;47ab91b8-18b7-41d0-a08e-0e025e338a92&quot;,&quot;wickType&quot;:&quot;path&quot;}"
           id="47ab91b8-18b7-41d0-a08e-0e025e338a92"
           fill="none"
           fill-rule="nonzero"
           stroke="#000000"
           stroke-width="0.8"
           stroke-linecap="round" />
        <path
           d="m 281.85443,239.74729 c 0.11897,-6.7923 3.27473,-12.24496 7.04858,-12.17886 3.77385,0.0661 6.73673,5.62594 6.61776,12.41824 -0.11897,6.7923 -3.27473,12.24495 -7.04858,12.17885 -3.77385,-0.0661 -6.73673,-5.62593 -6.61776,-12.41823 z"
           data-paper-data="{&quot;wickUUID&quot;:&quot;e07ee258-cee8-429d-9e3c-e0f913774f1e&quot;,&quot;wickType&quot;:&quot;path&quot;}"
           id="e07ee258-cee8-429d-9e3c-e0f913774f1e"
           fill="#fefcaf"
           fill-rule="nonzero"
           stroke="#000000"
           stroke-width="0"
           stroke-linecap="round" />
        <path
           d="m 361.85419,238.30561 c -0.10468,-6.79254 2.86989,-12.34612 6.64387,-12.40428 3.77398,-0.0582 6.91827,5.40114 7.02295,12.19368 0.10468,6.79254 -2.86989,12.34611 -6.64387,12.40427 -3.77398,0.0582 -6.91827,-5.40113 -7.02295,-12.19367 z"
           data-paper-data="{&quot;wickUUID&quot;:&quot;65a0d20e-b781-49a2-bb32-26d97811e3a2&quot;,&quot;wickType&quot;:&quot;path&quot;}"
           id="65a0d20e-b781-49a2-bb32-26d97811e3a2"
           fill="#fefcaf"
           fill-rule="nonzero"
           stroke="#000000"
           stroke-width="0"
           stroke-linecap="round" />
        <path
           id="f5f94a95-b6dd-4cb8-8f02-586cb81bdc1e"
           d="M 507.35938 586.37109 C 498.55292 586.37109 491.41406 598.04339 491.41406 612.44141 C 491.41406 626.83943 498.55292 638.50977 507.35938 638.50977 C 516.16583 638.50977 523.30469 626.83943 523.30469 612.44141 C 523.30469 598.04339 516.16583 586.37109 507.35938 586.37109 z M 273.56836 591.73828 C 264.76191 591.73828 257.62305 603.41057 257.62305 617.80859 C 257.62305 632.20661 264.76191 643.87891 273.56836 643.87891 C 282.37481 643.87891 289.51367 632.20661 289.51367 617.80859 C 289.51367 603.41057 282.37481 591.73828 273.56836 591.73828 z "
           transform="matrix(0.34218665,0,0,0.34218665,195.23804,28.877852)"
           style="fill:url(#radialGradient10417);fill-opacity:1" />
        <path
           d="m 357.22927,229.65864 c 0,-4.42978 2.70495,-8.02083 6.04167,-8.02083 3.33672,0 6.04166,3.59105 6.04166,8.02083 0,4.42978 -2.70494,8.02084 -6.04166,8.02084 -3.33672,0 -6.04167,-3.59106 -6.04167,-8.02084 z"
           data-paper-data="{&quot;wickUUID&quot;:&quot;75c2716b-f532-453a-ba22-1eaf17ea76e8&quot;,&quot;wickType&quot;:&quot;path&quot;}"
           id="75c2716b-f532-453a-ba22-1eaf17ea76e8"
           fill="#ffffff"
           fill-rule="nonzero"
           stroke="#000000"
           stroke-width="0"
           stroke-linecap="round" />
        <path
           d="m 277.64594,231.53364 c 0,-4.42978 2.70495,-8.02083 6.04167,-8.02083 3.33672,0 6.04166,3.59105 6.04166,8.02083 0,4.42978 -2.70494,8.02084 -6.04166,8.02084 -3.33672,0 -6.04167,-3.59106 -6.04167,-8.02084 z"
           data-paper-data="{&quot;wickUUID&quot;:&quot;baa55dd3-fdf5-408d-b2b4-da3418ee30c4&quot;,&quot;wickType&quot;:&quot;path&quot;}"
           id="baa55dd3-fdf5-408d-b2b4-da3418ee30c4"
           fill="#ffffff"
           fill-rule="nonzero"
           stroke="#000000"
           stroke-width="0"
           stroke-linecap="round" />
        <path
           d="m 361.05641,240.65864 c 0,-0.83933 0.54376,-1.51973 1.21453,-1.51973 0.67077,0 1.21452,0.6804 1.21452,1.51973 0,0.83933 -0.54375,1.51974 -1.21452,1.51974 -0.67077,0 -1.21453,-0.68041 -1.21453,-1.51974 z"
           data-paper-data="{&quot;wickUUID&quot;:&quot;72b32e78-d1d9-41b3-b81a-4abcf58596d6&quot;,&quot;wickType&quot;:&quot;path&quot;}"
           id="72b32e78-d1d9-41b3-b81a-4abcf58596d6"
           fill="#ffffff"
           fill-rule="nonzero"
           stroke="#000000"
           stroke-width="0"
           stroke-linecap="round" />
        <path
           d="m 281.05641,242.65864 c 0,-0.83933 0.54376,-1.51973 1.21453,-1.51973 0.67077,0 1.21452,0.6804 1.21452,1.51973 0,0.83933 -0.54375,1.51974 -1.21452,1.51974 -0.67077,0 -1.21453,-0.68041 -1.21453,-1.51974 z"
           data-paper-data="{&quot;wickUUID&quot;:&quot;1f86a972-5b76-4084-8daa-48e8c5b29c2d&quot;,&quot;wickType&quot;:&quot;path&quot;}"
           id="1f86a972-5b76-4084-8daa-48e8c5b29c2d"
           fill="#ffffff"
           fill-rule="nonzero"
           stroke="#000000"
           stroke-width="0"
           stroke-linecap="round" />
        <path
           d="m 363.41109,250.56773 c 0,-3.57052 2.70495,-6.46501 6.04167,-6.46501 3.33672,0 6.04166,2.89449 6.04166,6.46501 0,3.57052 -2.70494,6.46503 -6.04166,6.46503 -3.33672,0 -6.04167,-2.89451 -6.04167,-6.46503 z"
           data-paper-data="{&quot;wickUUID&quot;:&quot;a84b3c30-0e69-470b-8d8d-873ad35da417&quot;,&quot;wickType&quot;:&quot;path&quot;}"
           id="a84b3c30-0e69-470b-8d8d-873ad35da417"
           fill="#ffffff"
           fill-rule="nonzero"
           stroke="#000000"
           stroke-width="0"
           stroke-linecap="round"
           opacity="0.27" />
        <path
           d="m 282.41109,251.56773 c 0,-3.57052 2.70495,-6.46501 6.04167,-6.46501 3.33672,0 6.04166,2.89449 6.04166,6.46501 0,3.57052 -2.70494,6.46503 -6.04166,6.46503 -3.33672,0 -6.04167,-2.89451 -6.04167,-6.46503 z"
           data-paper-data="{&quot;wickUUID&quot;:&quot;cb00a9c1-378d-4b8c-bba4-8092813a15d1&quot;,&quot;wickType&quot;:&quot;path&quot;}"
           id="cb00a9c1-378d-4b8c-bba4-8092813a15d1"
           fill="#ffffff"
           fill-rule="nonzero"
           stroke="#000000"
           stroke-width="0"
           stroke-linecap="round"
           opacity="0.27" />
        <path
           d="m 348.86353,219.03822 c 12.61324,-15.08711 34.49478,-11.5331 43.76307,7.10802"
           data-paper-data="{&quot;wickUUID&quot;:&quot;1f6eac6f-ab05-4b75-829a-0102fecdcb4d&quot;,&quot;wickType&quot;:&quot;path&quot;}"
           id="1f6eac6f-ab05-4b75-829a-0102fecdcb4d"
           fill="none"
           fill-rule="nonzero"
           stroke="#000000"
           stroke-width="1"
           stroke-linecap="round"
           style="stroke:#4a3434;stroke-opacity:0.92915529;stroke-width:0.74106312;stroke-miterlimit:10;stroke-dasharray:none" />
        <path
           d="m 308.86353,220.43195 c -10.94077,-16.68989 -32.8223,-14.11149 -43.76307,5.1568"
           data-paper-data="{&quot;wickUUID&quot;:&quot;dc0ea419-a8c3-47c3-8a1c-ebadf9449d95&quot;,&quot;wickType&quot;:&quot;path&quot;}"
           id="dc0ea419-a8c3-47c3-8a1c-ebadf9449d95"
           fill="none"
           fill-rule="nonzero"
           stroke="#000000"
           stroke-width="1"
           stroke-linecap="round"
           style="stroke:#4a3434;stroke-opacity:0.92915529;stroke-width:0.74106312;stroke-miterlimit:10;stroke-dasharray:none" />
        <path
           d="m 393.83898,246.68748 c 0.42045,0.31364 2.17045,0.71364 3.5,0.8"
           data-paper-data="{&quot;wickUUID&quot;:&quot;e0eb6cea-b4ee-4db8-8b8c-23f485f2da8b&quot;,&quot;wickType&quot;:&quot;path&quot;}"
           id="e0eb6cea-b4ee-4db8-8b8c-23f485f2da8b"
           fill="none"
           fill-rule="nonzero"
           stroke="#000000"
           stroke-width="0.5"
           stroke-linecap="round" />
        <path
           d="m 392.83898,240.48748 c 1.12273,0.88182 3.82273,1.28182 5.4,0.8"
           data-paper-data="{&quot;wickUUID&quot;:&quot;a05479e2-7598-439b-bcb9-67e4d0011fed&quot;,&quot;wickType&quot;:&quot;path&quot;}"
           id="a05479e2-7598-439b-bcb9-67e4d0011fed"
           fill="none"
           fill-rule="nonzero"
           stroke="#000000"
           stroke-width="0.8"
           stroke-linecap="round" />
        <path
           d="m 397.23898,236.18748 c -1.075,0.57955 -3.225,0.82955 -4.3,0.5"
           data-paper-data="{&quot;wickUUID&quot;:&quot;828f5e0e-6ecc-415c-976f-952cb1a25b28&quot;,&quot;wickType&quot;:&quot;path&quot;}"
           id="828f5e0e-6ecc-415c-976f-952cb1a25b28"
           fill="none"
           fill-rule="nonzero"
           stroke="#000000"
           stroke-width="0.8"
           stroke-linecap="round" />
        <path
           d="m 395.73898,232.08748 c -0.91364,0.82955 -2.51364,1.57955 -3.2,1.5"
           data-paper-data="{&quot;wickUUID&quot;:&quot;553b2412-3cd2-40d0-8e79-ef3d5eda854b&quot;,&quot;wickType&quot;:&quot;path&quot;}"
           id="553b2412-3cd2-40d0-8e79-ef3d5eda854b"
           fill="none"
           fill-rule="nonzero"
           stroke="#000000"
           stroke-width="0.8"
           stroke-linecap="round" />
      </g>
      <g
         data-paper-data="{&quot;wickUUID&quot;:&quot;4773d54a-e653-4040-9b19-1782c29d098c&quot;,&quot;wickType&quot;:&quot;clipsandpaths&quot;}"
         fill="none"
         fill-rule="none"
         stroke="none"
         stroke-width="1"
         stroke-linecap="none"
         stroke-linejoin="miter"
         stroke-miterlimit="10"
         stroke-dasharray="none"
         stroke-dashoffset="0"
         font-family="none"
         font-weight="none"
         font-size="none"
         text-anchor="none"
         style="mix-blend-mode:normal"
         id="g110"
         transform="matrix(1.8219337,0,0,1.8219337,-220.19905,-102.57757)">
        <path
           d="m 382.65281,305.22696 c 0,0 -27.67726,16.98517 -55.46666,16.13334 -27.7894,-0.85183 -57.06667,-19.60001 -57.06667,-19.60001"
           data-paper-data="{&quot;wickUUID&quot;:&quot;8d400dbf-3c2f-41f5-9915-3c8221113f6a&quot;,&quot;wickType&quot;:&quot;path&quot;}"
           id="8d400dbf-3c2f-41f5-9915-3c8221113f6a"
           fill="none"
           fill-rule="nonzero"
           stroke="#000000"
           stroke-linecap="round" />
        <path
           d="m 257.42405,223.65532 c 0,0 5.93472,-9.10672 10.42253,-18.65713 4.48781,-9.55041 7.09091,-18.36364 7.09091,-18.36364 0,0 2.36216,8.25139 7.45455,14.36363 5.09239,6.11224 12,9.09092 12,9.09092 0,0 -6.32049,-17.21888 -6.9697,-27.93302 -0.64921,-10.71414 3.33333,-18.59649 3.33333,-18.59649 0,0 2.7957,19.72559 10.41666,31.20249 7.62096,11.4769 19.30556,15.97222 19.30556,15.97222 0,0 -3.87132,-4.29008 -5.65657,-6.99621 -1.9595,-2.97027 -4.14032,-9.7123 -4.14032,-9.7123 0,0 10.81889,9.93948 19.16558,13.69968 8.34669,3.7602 21.08766,4.75486 21.08766,4.75486 0,0 -7.2804,-11.89955 -11.54221,-23.5579 -4.26181,-11.65835 -4.39394,-26.51515 -4.39394,-26.51515 0,0 6.32996,15.5829 17.23299,26.91878 10.90303,11.33588 22.46865,17.54896 22.46865,17.54896 l 0.31824,7.04121 c 0,0 3.16243,-3.22832 4.98727,-7.343 1.82484,-4.11468 3.86364,-12.72727 3.86364,-12.72727 0,0 4.1497,10.66922 8.81599,20.18253 4.66629,9.51331 8.82352,14.11765 8.82352,14.11765 0,0 -1.56512,26.59709 -4.58891,39.04749 -2.82885,11.64775 -8.98168,21.96153 -12.4,32.8 -3.2439,10.08135 -7.2662,24.51875 -7.43881,38.81976 -0.86041,12.27168 6.10406,25.84913 6.10406,25.84913 0,0 6.92787,-4.24558 10.20341,-6.66547 3.14622,-2.32436 9.24529,-6.42249 9.24529,-6.42249 0,0 2.79001,3.26388 5.28301,6.98113 2.493,3.71725 2.16981,4.29245 4.5283,8.30188 0,0 20.57272,-2.31037 30.6933,-12.49232 11.05872,-11.23944 17.34052,-26.22524 17.13031,-42.04036 -0.27747,-14.74779 -3.43593,-23.33244 -9.76744,-45.5814 -6.71613,-22.24896 -15.33683,-45.7567 -34.05237,-93.59514 -20.25158,-43.79323 -31.3592,-56.94229 -58.29196,-63.82179 -29.59188,-7.80596 -50.66271,-6.70705 -74.20803,5.07179 -28.69075,16.0105 -42.61097,55.74413 -52.77778,81.7361 -7.64833,24.72288 -10.27437,38.8642 -18.51852,64.81482 -8.24415,25.95062 -15.22775,43.94364 -6.29629,70.74074 11.17956,28.33247 38.66867,32.04204 38.66867,32.04204 0,0 -5.59579,-3.83245 -11.52516,-11.13232 -5.92937,-7.29987 -10.42867,-17.06025 -10.42867,-17.06025 0,0 13.11164,10.87172 17.80368,13.48386 4.69204,2.61214 12.11411,3.68544 12.11411,3.68544 0,0 5.74218,4.40795 11.02477,7.05067 5.28259,2.64272 8.97277,3.30589 8.97277,3.30589"
           data-paper-data="{&quot;wickUUID&quot;:&quot;d44590d3-34bf-44db-aae1-7eddfc59bd73&quot;,&quot;wickType&quot;:&quot;path&quot;}"
           id="d44590d3-34bf-44db-aae1-7eddfc59bd73"
           fill="none"
           fill-rule="nonzero"
           stroke="#000000"
           stroke-linecap="round"
           sodipodi:nodetypes="cscscscscscscscsccscscscccscsccccccccsccscscsc" />
        <path
           d="m 257.06948,223.96863 c 0,0 -1.1699,14.66462 0.93085,30.46542 2.10075,15.8008 5.53852,28.74494 8.0851,37.23404 1.37105,4.57042 7.42418,15.71462 8.46275,25.29496 0.84644,7.808 -0.47371,15.8677 -1.09213,26.52721 -0.61842,10.65951 -0.77336,19.61996 -0.77336,19.61996"
           data-paper-data="{&quot;wickUUID&quot;:&quot;ecb2edd3-2acb-4bc0-97a3-a38ab42d7270&quot;,&quot;wickType&quot;:&quot;path&quot;}"
           id="ecb2edd3-2acb-4bc0-97a3-a38ab42d7270"
           fill="none"
           fill-rule="nonzero"
           stroke="#000000"
           stroke-linecap="round" />
        <path
           d="m 306.26887,317.97761 c 0,0 0.76015,3.1646 1.21665,6.52419 0.4565,3.35959 0.30302,5.60606 0.30302,5.60606 0,0 -8.63138,5.36252 -17.57575,9.09091 -8.94437,3.72839 -16.81818,5.45454 -16.81818,5.45454"
           data-paper-data="{&quot;wickUUID&quot;:&quot;cacd5733-75b6-4293-b448-83d89ab4d588&quot;,&quot;wickType&quot;:&quot;path&quot;}"
           id="cacd5733-75b6-4293-b448-83d89ab4d588"
           fill="none"
           fill-rule="nonzero"
           stroke="#000000"
           stroke-linecap="round" />
        <path
           d="m 352.55336,318.63318 c 0,0 -0.81179,4.64216 -0.95891,6.71233 -0.12547,1.7655 1e-5,4.93152 1e-5,4.93152 0,0 8.68473,5.34966 13.83561,7.67122 5.15088,2.32156 11.30243,3.81875 11.30243,3.81875"
           data-paper-data="{&quot;wickUUID&quot;:&quot;8616900a-5a02-4a52-be45-822020b6c85b&quot;,&quot;wickType&quot;:&quot;path&quot;}"
           id="8616900a-5a02-4a52-be45-822020b6c85b"
           fill="none"
           fill-rule="nonzero"
           stroke="#000000"
           stroke-linecap="round" />
        <path
           d="m 391.52504,129.28248 c 0,0 10.6784,1.16005 20.69719,4.06273 10.01879,2.90268 22.1776,8.11583 22.1776,8.11583 0,0 -1.84735,8.99322 -4.29601,18.41099 -2.44866,9.41777 -8.47973,26.4414 -8.47973,26.4414"
           data-paper-data="{&quot;wickUUID&quot;:&quot;6bc4e139-da42-4991-9fe6-eff2f4edb42a&quot;,&quot;wickType&quot;:&quot;path&quot;}"
           id="6bc4e139-da42-4991-9fe6-eff2f4edb42a"
           fill="none"
           fill-rule="nonzero"
           stroke="#000000"
           stroke-linecap="round"
           sodipodi:nodetypes="cscsc" />
        <path
           d="m 265.62295,130.10808 c 0,0 -13.04814,1.10369 -22.30715,4.00637 -8.68209,1.74883 -16.09296,4.69264 -22.0342,7.92352 1.19497,5.53991 3.09384,13.31879 6.89527,22.54425 2.26296,9.41777 7.06743,22.01833 7.06743,22.01833"
           data-paper-data="{&quot;wickUUID&quot;:&quot;c054d03b-211b-4615-9deb-164727cf47d0&quot;,&quot;wickType&quot;:&quot;path&quot;}"
           id="c054d03b-211b-4615-9deb-164727cf47d0"
           fill="none"
           fill-rule="nonzero"
           stroke="#000000"
           stroke-linecap="round" />
        <path
           d="m 302.4565,48.91814 c -3.963,1.422 -6.529,3.793 -8.457,7.815 -3.248,6.775 -0.109,15.183 6.96,18.645 3.36,1.646 8.459,1.557 12.059,-0.211 5.108,-2.509 7.751,-6.846 7.751,-12.719 0,-4.057 -0.988,-6.77 -3.515,-9.648 -3.311,-3.771 -10.126,-5.559 -14.798,-3.882 z"
           data-paper-data="{&quot;wickUUID&quot;:&quot;06c06d78-e383-4890-906c-0d8f71e06adf&quot;,&quot;wickType&quot;:&quot;path&quot;}"
           id="06c06d78-e383-4890-906c-0d8f71e06adf"
           fill="#ffffff"
           fill-rule="evenodd"
           stroke="none"
           stroke-linecap="butt" />
        <path
           d="M 345.04765,100.92313"
           data-paper-data="{&quot;wickUUID&quot;:&quot;086faae7-2d33-4615-ab40-ae11f27c085e&quot;,&quot;wickType&quot;:&quot;path&quot;}"
           id="086faae7-2d33-4615-ab40-ae11f27c085e"
           fill="none"
           fill-rule="nonzero"
           stroke="#000000"
           stroke-linecap="round" />
        <path
           d="m 350.04765,119.46159 c -3.09539,-3.09539 -10.00463,-10.38462 -14.80769,-10.38462"
           data-paper-data="{&quot;wickUUID&quot;:&quot;a2fd4601-9bf3-4d33-8cf9-3d77457a2f05&quot;,&quot;wickType&quot;:&quot;path&quot;}"
           id="a2fd4601-9bf3-4d33-8cf9-3d77457a2f05"
           fill="none"
           fill-rule="nonzero"
           stroke="#000000"
           stroke-linecap="round" />
        <path
           d="m 320.43226,113.42313 c -6.96804,-1.39361 -13.65401,1.7e-4 -18.65384,5"
           data-paper-data="{&quot;wickUUID&quot;:&quot;2b9b8888-7725-4465-a38c-3cfed25fef9e&quot;,&quot;wickType&quot;:&quot;path&quot;}"
           id="2b9b8888-7725-4465-a38c-3cfed25fef9e"
           fill="none"
           fill-rule="nonzero"
           stroke="#000000"
           stroke-linecap="round" />
        <path
           d="m 290.39258,162.76531 c 0,-11.48266 3.08906,-28.00969 11.5873,-36.50793"
           data-paper-data="{&quot;wickUUID&quot;:&quot;4d834351-3506-4c91-94fe-3c6523ac101f&quot;,&quot;wickType&quot;:&quot;path&quot;}"
           id="4d834351-3506-4c91-94fe-3c6523ac101f"
           fill="none"
           fill-rule="nonzero"
           stroke="#000000"
           stroke-linecap="round" />
        <path
           d="m 310.681,194.02579 c -6.2184,-6.2184 -12.66937,-21.985 -12.66937,-30.62556"
           data-paper-data="{&quot;wickUUID&quot;:&quot;d04902b8-50cd-487c-ac64-0568aa8aa931&quot;,&quot;wickType&quot;:&quot;path&quot;}"
           id="d04902b8-50cd-487c-ac64-0568aa8aa931"
           fill="none"
           fill-rule="nonzero"
           stroke="#000000"
           stroke-linecap="round"
           sodipodi:nodetypes="cc" />
        <path
           d="m 274.90737,185.97151 c -1.14195,-6.85169 0.625,-13.53916 0.625,-20.25"
           data-paper-data="{&quot;wickUUID&quot;:&quot;c8633061-27f0-452c-880d-2ae3f627e6f7&quot;,&quot;wickType&quot;:&quot;path&quot;}"
           id="c8633061-27f0-452c-880d-2ae3f627e6f7"
           fill="none"
           fill-rule="nonzero"
           stroke="#000000"
           stroke-linecap="round" />
        <path
           d="M 286.65737,133.95068 C 265.12153,155.48652 256.9907,194.7109 256.9907,224.28401"
           data-paper-data="{&quot;wickUUID&quot;:&quot;ac303b88-3007-4db7-8c2a-d1d672b3d44f&quot;,&quot;wickType&quot;:&quot;path&quot;}"
           id="ac303b88-3007-4db7-8c2a-d1d672b3d44f"
           fill="none"
           fill-rule="nonzero"
           stroke="#000000"
           stroke-linecap="round" />
        <path
           d="m 265.80443,291.12225 c 0,0 -12.344,-22.57306 -17.35294,-53.82353 -5.00894,-31.25047 -0.58824,-59.11765 -0.58824,-59.11765"
           data-paper-data="{&quot;wickUUID&quot;:&quot;300a295f-29f3-46e8-b4ef-d533560b932a&quot;,&quot;wickType&quot;:&quot;path&quot;}"
           id="300a295f-29f3-46e8-b4ef-d533560b932a"
           fill="none"
           fill-rule="nonzero"
           stroke="#000000"
           stroke-linecap="round" />
        <path
           d="m 266.00077,291.86022 c 0,0 -15.925,-17.7326 -22.8434,-44.85561 -6.9184,-27.12301 -2.94118,-57.94118 -2.94118,-57.94118"
           data-paper-data="{&quot;wickUUID&quot;:&quot;4995b11a-06fe-4f14-ae04-cbeeb504c890&quot;,&quot;wickType&quot;:&quot;path&quot;}"
           id="4995b11a-06fe-4f14-ae04-cbeeb504c890"
           fill="none"
           fill-rule="nonzero"
           stroke="#000000"
           stroke-linecap="round"
           sodipodi:nodetypes="csc" />
        <path
           d="m 387.23388,298.02887 c 0,0 16.78222,-24.06862 25.38461,-53.07692 8.60239,-29.0083 7.3077,-54.23077 7.3077,-54.23077"
           data-paper-data="{&quot;wickUUID&quot;:&quot;f8ac5a3f-8b10-4304-8f5f-e9b4fb3746b1&quot;,&quot;wickType&quot;:&quot;path&quot;}"
           id="f8ac5a3f-8b10-4304-8f5f-e9b4fb3746b1"
           fill="none"
           fill-rule="nonzero"
           stroke="#000000"
           stroke-linecap="round" />
        <path
           d="m 406.58484,179.31493 c 0,0 5.34733,35.33348 2.1875,55 -3.15983,19.66652 -21.02001,57.27001 -21.02001,57.27001"
           data-paper-data="{&quot;wickUUID&quot;:&quot;119289bc-4f8f-4323-befe-7ffa36da7ce4&quot;,&quot;wickType&quot;:&quot;path&quot;}"
           id="119289bc-4f8f-4323-befe-7ffa36da7ce4"
           fill="none"
           fill-rule="nonzero"
           stroke="#000000"
           stroke-linecap="round"
           sodipodi:nodetypes="csc" />
        <path
           d="m 401.39734,228.78368 c 0,0 0.21045,-21.6526 -4.75,-42 -4.96045,-20.3474 -15.25,-40.25 -15.25,-40.25"
           data-paper-data="{&quot;wickUUID&quot;:&quot;3d34f797-4f7b-4ee1-86d3-c5c6e1856463&quot;,&quot;wickType&quot;:&quot;path&quot;}"
           id="3d34f797-4f7b-4ee1-86d3-c5c6e1856463"
           fill="none"
           fill-rule="nonzero"
           stroke="#000000"
           stroke-linecap="round" />
        <path
           d="m 383.71553,193.81777 c 0,0 0.60033,-8.1006 -0.9091,-16.36363 -1.50943,-8.26303 -5.68181,-19.54546 -5.68181,-19.54546"
           data-paper-data="{&quot;wickUUID&quot;:&quot;223c518f-5e85-4749-8a34-263b2f70e5ec&quot;,&quot;wickType&quot;:&quot;path&quot;}"
           id="223c518f-5e85-4749-8a34-263b2f70e5ec"
           fill="none"
           fill-rule="nonzero"
           stroke="#000000"
           stroke-linecap="round" />
        <path
           d="m 374.85189,206.31777 c 0,0 -0.3148,-7.06294 -2.5,-14.77273 -2.1852,-7.70979 -6.81818,-18.63636 -6.81818,-18.63636"
           data-paper-data="{&quot;wickUUID&quot;:&quot;48a56cb0-a944-4a3b-b82a-0b998900461b&quot;,&quot;wickType&quot;:&quot;path&quot;}"
           id="48a56cb0-a944-4a3b-b82a-0b998900461b"
           fill="none"
           fill-rule="nonzero"
           stroke="#000000"
           stroke-linecap="round" />
        <path
           d="m 402.25523,351.74453 c 15.00555,-12.01111 28.04722,-29.75047 33.67915,-49.09511 6.71991,-23.08163 -3.71111,-83.01852 -3.71111,-83.01852"
           data-paper-data="{&quot;wickUUID&quot;:&quot;0a4a1f35-dcd0-4dbb-abe6-2119286edb85&quot;,&quot;wickType&quot;:&quot;path&quot;}"
           id="0a4a1f35-dcd0-4dbb-abe6-2119286edb85"
           fill="none"
           fill-rule="nonzero"
           stroke="#000000"
           stroke-linecap="round"
           sodipodi:nodetypes="csc" />
        <path
           d="m 253.34179,352.64942 c 0,0 -22.9898,-26.25533 -29.62963,-53.7037 -6.63983,-27.44837 -0.37037,-65.55556 -0.37037,-65.55556"
           data-paper-data="{&quot;wickUUID&quot;:&quot;6e02a564-59ec-448b-924d-040f45c2302f&quot;,&quot;wickType&quot;:&quot;path&quot;}"
           id="6e02a564-59ec-448b-924d-040f45c2302f"
           fill="none"
           fill-rule="nonzero"
           stroke="#000000"
           stroke-linecap="round" />
        <path
           d="m 222.4183,333.59916 c 0,0 -9.08719,-9.17476 -11.32872,-22.05838 -2.24153,-12.88362 1.09063,-37.94163 1.09063,-37.94163"
           data-paper-data="{&quot;wickUUID&quot;:&quot;e290afa6-bfb4-4d60-9852-958ac6c5363e&quot;,&quot;wickType&quot;:&quot;path&quot;}"
           id="e290afa6-bfb4-4d60-9852-958ac6c5363e"
           fill="none"
           fill-rule="nonzero"
           stroke="#000000"
           stroke-linecap="round" />
        <path
           d="m 307.88526,328.26592 c 0,0 0.16922,2.77862 0.0546,4.26522 -0.12736,1.65255 -0.87432,5.19809 -0.87432,5.19809"
           data-paper-data="{&quot;wickUUID&quot;:&quot;026235ad-104f-40cf-892a-76f5d9edd703&quot;,&quot;wickType&quot;:&quot;path&quot;}"
           id="026235ad-104f-40cf-892a-76f5d9edd703"
           fill="none"
           fill-rule="nonzero"
           stroke="#000000"
           stroke-linecap="round" />
        <line
           x1="351.56921"
           y1="329.81339"
           x2="351.40109"
           y2="336.09662"
           data-paper-data="{&quot;wickUUID&quot;:&quot;5c80b14c-2b4f-436c-a75b-3176444c081a&quot;,&quot;wickType&quot;:&quot;path&quot;}"
           id="5c80b14c-2b4f-436c-a75b-3176444c081a"
           fill="none"
           fill-rule="nonzero"
           stroke="#000000"
           stroke-linecap="round" />
        <path
           d="m 286.86885,341.00483 c 0,0 -1.29357,12.02033 9.42308,17.69231 10.71665,5.67198 55.91136,6.5548 66.34615,1.73077 10.43479,-4.82403 13.26924,-18.65384 13.26924,-18.65384"
           data-paper-data="{&quot;wickUUID&quot;:&quot;9f0e0af4-669e-4cb5-b773-b797fcd67dc7&quot;,&quot;wickType&quot;:&quot;path&quot;}"
           id="9f0e0af4-669e-4cb5-b773-b797fcd67dc7"
           fill="none"
           fill-rule="nonzero"
           stroke="#000000"
           stroke-linecap="round" />
        <path
           d="m 256.0398,355.02086 c -2.69124,3.85043 -6.38141,9.85897 -8.45727,15.24786"
           data-paper-data="{&quot;wickUUID&quot;:&quot;591863a8-e89a-4478-9628-2d6896132edf&quot;,&quot;wickType&quot;:&quot;path&quot;}"
           id="591863a8-e89a-4478-9628-2d6896132edf"
           fill="none"
           fill-rule="nonzero"
           stroke="#000000"
           stroke-linecap="round" />
        <line
           x1="413.02271"
           y1="366.9856"
           x2="413.79193"
           y2="370.52405"
           data-paper-data="{&quot;wickUUID&quot;:&quot;fb855dd1-6f94-4605-9795-17ba462c83fe&quot;,&quot;wickType&quot;:&quot;path&quot;}"
           id="fb855dd1-6f94-4605-9795-17ba462c83fe"
           fill="none"
           fill-rule="nonzero"
           stroke="#000000"
           stroke-linecap="round" />
        <line
           x1="413.02271"
           y1="366.9856"
           x2="413.79193"
           y2="370.52405"
           data-paper-data="{&quot;wickUUID&quot;:&quot;9f90c584-b093-4444-af3d-ef913b17789e&quot;,&quot;wickType&quot;:&quot;path&quot;}"
           id="9f90c584-b093-4444-af3d-ef913b17789e"
           fill="none"
           fill-rule="nonzero"
           stroke="#000000"
           stroke-linecap="round" />
        <line
           x1="413.79193"
           y1="370.37021"
           x2="247.17654"
           y2="370.37021"
           data-paper-data="{&quot;wickUUID&quot;:&quot;e353d19f-cae1-414a-b6fd-a0d665ec8df2&quot;,&quot;wickType&quot;:&quot;path&quot;}"
           id="e353d19f-cae1-414a-b6fd-a0d665ec8df2"
           fill="none"
           fill-rule="nonzero"
           stroke="#000000"
           stroke-linecap="round" />
        <line
           x1="413.79193"
           y1="370.37021"
           x2="247.17654"
           y2="370.37021"
           data-paper-data="{&quot;wickUUID&quot;:&quot;c8caedf8-ef6c-4840-91c5-7d748fa3251b&quot;,&quot;wickType&quot;:&quot;path&quot;}"
           id="c8caedf8-ef6c-4840-91c5-7d748fa3251b"
           fill="none"
           fill-rule="nonzero"
           stroke="#000000"
           stroke-linecap="round" />
      </g>
      <g
         fill="none"
         fill-rule="nonzero"
         stroke="none"
         stroke-width="1"
         stroke-linecap="butt"
         stroke-linejoin="miter"
         stroke-miterlimit="10"
         stroke-dasharray="none"
         stroke-dashoffset="0"
         font-family="sans-serif"
         font-weight="normal"
         font-size="12px"
         text-anchor="start"
         style="mix-blend-mode:normal"
         id="g112" />
      <g
         id="wick_project_gui"
         fill="none"
         fill-rule="nonzero"
         stroke="none"
         stroke-width="1"
         stroke-linecap="butt"
         stroke-linejoin="miter"
         stroke-miterlimit="10"
         stroke-dasharray="none"
         stroke-dashoffset="0"
         font-family="sans-serif"
         font-weight="normal"
         font-size="12px"
         text-anchor="start"
         style="mix-blend-mode:normal" />
    </g>
  </g>
</svg>
